              ***********************************************

                BTUnhide - Largest Bittorrent Community
      
                          http://btunhide.com/
    
              ***********************************************
IMDB Link - http://www.imdb.com/title/tt1922685/

Source - Phantom.2013.720p.BluRay.DTS.x264-PHD (Thumbs Up   Respect)

NOTES - Enjoy.

General
Complete name                            : Phantom 2013 720p BRRip 6CH AAC x264-SSDD (HQ).mp4
Format                                   : MPEG-4
Format profile                           : Base Media
Codec ID                                 : isom
File size                                : 2.20 GiB
Duration                                 : 1h 38mn
Overall bit rate mode                    : Variable
Overall bit rate                         : 3 198 Kbps

Video
ID                                       : 1
Format                                   : AVC
Format/Info                              : Advanced Video Codec
Format profile                           : High@L4.1
Format settings, CABAC                   : Yes
Format settings, ReFrames                : 4 frames
Codec ID                                 : avc1
Codec ID/Info                            : Advanced Video Coding
Duration                                 : 1h 38mn
Bit rate                                 : 2 939 Kbps
Maximum bit rate                         : 6 407 Kbps
Width                                    : 1 280 pixels
Height                                   : 544 pixels
Display aspect ratio                     : 2.35:1
Frame rate mode                          : Constant
Frame rate                               : 23.976 fps
Color space                              : YUV
Chroma subsampling                       : 4:2:0
Bit depth                                : 8 bits
Scan type                                : Progressive
Bits/(Pixel*Frame)                       : 0.176
Stream size                              : 2.02 GiB (92%)
Writing library                          : x264 core 133 r2334 a3ac64b

Audio
ID                                       : 2
Format                                   : AAC
Format/Info                              : Advanced Audio Codec
Format profile                           : LC
Codec ID                                 : 40
Duration                                 : 1h 38mn
Bit rate mode                            : Variable
Bit rate                                 : 256 Kbps
Maximum bit rate                         : 276 Kbps
Channel(s)                               : 6 channels
Channel positions                        : Front: L C R, Side: L R, LFE
Sampling rate                            : 48.0 KHz
Compression mode                         : Lossy
Stream size                              : 180 MiB (8%)

Gallery: 
http://imgsure.com/?p=919773